<?xml version="1.0" encoding="utf-8"?>
<!-- Svg Vector Icons : http://www.onlinewebfonts.com/icon -->
<!DOCTYPE svg PUBLIC "-//W3C//DTD SVG 1.1//EN" "http://www.w3.org/Graphics/SVG/1.1/DTD/svg11.dtd">
<svg version="1.1" xmlns="http://www.w3.org/2000/svg" xmlns:xlink="http://www.w3.org/1999/xlink" x="0px" y="0px" viewBox="0 0 1000 1000" enable-background="new 0 0 1000 1000" xml:space="preserve">
<metadata> Svg Vector Icons : http://www.onlinewebfonts.com/icon </metadata>
<g><g transform="translate(0.000000,512.000000) scale(0.100000,-0.100000)"><path d="M2262.1,4997.6c-114.9-40.2-208.7-107.2-269.9-191.4c-105.3-145.5-111-176.1-111-587.7v-380.9h-158.9c-308.2,0-578.1-111-811.7-333.1c-231.6-220.1-373.3-459.4-472.8-804C127.7,1634.2,740.3,399.5,1737.6,85.6c86.1-26.8,206.7-46,338.8-51.7l204.8-11.5l84.2-145.5c469-807.8,1288.3-1389.8,2167-1544.8c252.7-44,679.6-44,938,0c871,151.2,1699.9,742.8,2167,1544.8l84.2,145.5l204.8,11.5c130.2,5.7,252.7,24.9,338.8,51.7c419.2,132.1,794.4,442.2,1056.7,872.9c505.4,830.8,403.9,1954.5-231.6,2547.9c-237.4,222.1-505.4,331.2-809.7,331.2h-157l-5.7,398.2c-5.7,348.4-9.6,405.8-44,472.8c-47.9,95.7-157,206.7-262.3,262.3l-82.3,44l-2699.1,3.8C2855.6,5022.5,2317.7,5018.7,2262.1,4997.6z M7671.9,4603.3l49.8-19.1l-7.6-1669.2c-7.7-1768.8-5.8-1722.9-99.6-2082.7c-134-520.7-398.2-983.9-763.8-1349.6c-526.4-524.5-1127.5-777.2-1849.2-777.2c-694.9,0-1299.8,243.1-1801.3,723.6c-513,493.9-813.6,1121.7-897.8,1872.1c-13.4,128.3-19.1,698.7-15.3,1742l5.7,1548.7l47.9,13.4C2419.1,4626.3,7614.4,4624.3,7671.9,4603.3z M1886.9,2331c5.7-943.7,11.5-1131.3,38.3-1271.1c30.6-149.3,126.3-514.9,157-595.3c28.7-74.7-246.9-26.8-459.4,78.5C891.5,906.8,518.2,2145.4,916.4,2899.6c174.2,333.1,486.2,534.1,825.1,536h137.8L1886.9,2331z M8510.3,3397.3C9140.1,3202,9413.9,2398,9144,1538.5c-172.3-551.3-549.4-966.7-978.2-1077.7c-126.3-32.5-254.6-40.2-254.6-15.3c0,9.6,21,80.4,47.9,158.9s72.7,245,99.6,371.4l49.8,229.7l7.7,1116l7.6,1114.1h132.1C8332.3,3435.6,8437.6,3420.3,8510.3,3397.3z"/><path d="M4844.5,3613.6c-95.7-88-168.4-237.4-291-608.7c-47.9-147.4-97.6-281.4-107.2-296.7c-15.3-23-93.8-30.6-434.5-40.2c-229.7-7.7-444.1-21.1-476.7-32.5c-97.6-30.6-176.1-78.5-206.7-122.5c-38.3-53.6-40.2-172.3-3.8-241.2c45.9-86.1,235.4-256.5,505.4-453.7c137.8-101.5,252.7-195.3,252.7-208.7s-42.1-162.7-93.8-329.3c-51.7-168.4-105.3-361.8-116.8-428.8c-59.3-329.3,95.7-474.7,386.7-363.7c55.5,21.1,243.1,137.8,417.3,258.4c174.2,120.6,325.4,216.3,336.9,212.5c13.4-5.8,141.7-91.9,287.1-195.3c415.4-289.1,591.5-359.9,731.2-287.1c82.3,42.1,109.1,112.9,105.3,277.6c-1.9,118.7-23,210.6-114.9,503.5l-114.9,358l40.2,36.4c23,19.2,157,122.5,298.6,227.8c358,266.1,459.4,386.7,459.4,543.7c0,76.6-97.6,176.1-201,208.7c-44,13.4-254.6,28.7-501.5,36.4c-243.1,5.7-432.6,19.1-442.2,30.6c-9.6,11.5-63.2,153.1-118.7,315.9c-145.5,425-229.7,581.9-344.6,641.3C5003.4,3703.6,4934.5,3692.1,4844.5,3613.6z M5129.7,2681.4c90-264.2,120.6-331.2,164.6-363.7c49.8-36.4,88-40.2,421.1-49.8l365.6-9.6l-281.4-206.7c-258.4-191.4-338.8-271.8-338.8-342.7c0-13.4,47.9-174.2,105.3-358c57.4-183.8,103.4-336.9,99.6-338.8c-1.9-1.9-132.1,86.1-291,195.3c-157,111-306.3,204.8-329.3,210.6c-74.6,19.1-122.5-3.8-417.3-210.6c-158.9-109.1-289.1-197.2-291-195.3c-1.9,1.9,42.1,157,101.5,346.5c93.8,304.4,101.5,348.4,82.3,405.8c-17.2,51.7-76.6,107.2-310.1,279.5l-291,214.4l365.6,9.6c300.5,7.6,371.4,15.3,413.5,42.1c53.6,34.4,78.5,93.8,212.5,488.1c44,128.3,86.1,227.8,93.8,220.1C5013,3010.6,5068.5,2859.4,5129.7,2681.4z"/><path d="M4499.9-2050.7c-28.7-15.3-61.3-44-72.7-65.1c-11.5-23-19.1-273.7-19.1-668.1v-633.6h-384.8c-417.3,0-469-11.5-513-109.1c-38.3-82.3-289.1-1001.1-289.1-1054.7c0-70.8,47.9-135.9,126.3-168.4c95.7-40.2,3212.1-40.2,3309.8,0c63.2,26.8,124.4,112.9,124.4,176.1c0,34.5-237.4,916.9-271.8,1006.9c-9.6,26.8-40.2,70.8-67,95.7c-45.9,42.1-57.4,44-447.9,49.8l-400.1,5.7v635.6c0,572.4-3.8,639.4-34.4,675.7c-80.4,99.5-202.9,111-294.8,28.7l-63.2-55.5l-5.7-643.2l-5.8-643.2h-189.5H4812l-5.8,643.2l-5.7,643.2l-63.2,55.5C4668.4-2012.5,4584.2-2004.8,4499.9-2050.7z M6159.6-3838.7c11.5-19.1,143.6-478.6,143.6-501.5c0-9.6-585.8-15.3-1301.7-15.3c-715.9,0-1301.7,5.7-1301.7,15.3c0,24.9,128.3,478.6,141.7,499.6C3856.7-3815.7,6144.3-3813.8,6159.6-3838.7z"/></g></g>
</svg>