<?xml version="1.0" encoding="utf-8"?>
<!-- Svg Vector Icons : http://www.onlinewebfonts.com/icon -->
<!DOCTYPE svg PUBLIC "-//W3C//DTD SVG 1.1//EN" "http://www.w3.org/Graphics/SVG/1.1/DTD/svg11.dtd">
<svg version="1.1" xmlns="http://www.w3.org/2000/svg" xmlns:xlink="http://www.w3.org/1999/xlink" x="0px" y="0px" viewBox="0 0 1000 1000" enable-background="new 0 0 1000 1000" xml:space="preserve">
<metadata> Svg Vector Icons : http://www.onlinewebfonts.com/icon </metadata>
<g><g transform="translate(0.000000,511.000000) scale(0.100000,-0.100000)"><path d="M4009.3,4984.9c-56.5-29.2-105.2-103.2-311.6-457.6l-243.4-424.5h-502.4h-504.4l-56.5-56.5l-56.5-56.5v-496.6c0-446-3.9-496.6-33.1-523.8c-19.5-15.6-208.4-128.5-422.6-251.2c-395.3-227.8-459.6-280.4-459.6-385.6c0-25.3,109.1-237.6,243.4-469.3s243.4-426.5,243.4-432.3c0-5.8-107.1-192.8-237.6-416.7C1471.9,675.5,1431,593.7,1431,525.5c-1.9-60.4,9.7-93.5,42.8-126.6c23.4-25.3,224-150,447.9-278.5l403.1-233.7l9.7-510.2l9.7-512.1l54.5-52.6l52.6-54.5l506.3-5.8l504.4-5.9l225.9-393.4c124.6-216.2,251.2-416.7,284.3-446c97.4-93.5,138.3-79.8,607.6,188.9l424.5,245.4l422.6-245.4c465.4-268.7,506.3-282.4,605.6-188.9c31.2,29.2,157.7,227.9,282.4,442.1l223.9,389.5l506.3,9.7l508.3,9.7l52.6,54.5l54.5,52.6l9.7,512.1l9.7,510.2l403.1,233.7c222,128.5,424.5,253.1,447.9,278.5c33.1,33.1,44.8,66.2,42.9,126.6c0,68.2-40.9,150-239.5,488.8c-130.5,223.9-233.7,418.7-227.8,434.3c5.8,13.6,112.9,202.5,235.6,416.7c124.6,214.2,231.7,418.7,235.6,451.8c17.5,116.8-35,161.6-465.4,408.9c-220,126.6-408.9,241.5-422.6,257.1c-15.6,17.5-19.5,171.4-17.5,502.4c2,321.3-3.9,488.8-19.5,516c-52.6,97.4-74,101.3-605.6,101.3h-498.5l-241.5,420.6c-134.4,233.7-262.9,434.3-288.2,451.8c-97.4,62.3-153.8,42.9-588.1-206.4c-225.9-130.5-418.7-237.6-428.4-237.6s-198.6,105.2-422.6,233.7c-222,126.6-426.5,237.6-453.7,243.4C4097,5014.2,4050.2,5004.4,4009.3,4984.9z M4519.5,4320.9c163.6-95.4,325.2-188.9,360.3-206.4c118.8-60.4,167.5-44.8,551.1,175.3c198.6,114.9,370,210.3,381.7,216.2c11.7,3.9,120.7-163.6,241.5-373.9c159.7-280.4,233.7-387.5,274.6-408.9c42.9-23.4,144.1-29.2,494.6-29.2h438.2v-438.2c0-350.5,5.8-451.8,29.2-496.6c21.4-40.9,128.5-112.9,408.9-274.6c208.4-118.8,379.7-223.9,379.7-233.7c0-7.8-95.4-181.1-214.2-383.6c-157.7-270.7-214.2-385.6-214.2-434.3s58.4-165.5,216.2-442.1c122.7-212.3,210.3-383.6,200.6-393.4c-9.7-9.7-171.4-105.2-358.3-212.3c-186.9-109.1-364.2-223.9-393.4-255.1l-54.5-58.4v-447.9v-446l-455.7-5.8c-449.8-5.8-457.6-5.8-506.3-52.6c-25.3-25.3-132.4-192.8-235.6-371.9c-247.3-430.4-227.8-407-296-368c-29.2,17.5-200.6,114.9-377.8,220c-224,128.5-342.7,187-385.6,187s-175.3-66.2-434.3-216.2c-204.5-116.8-381.7-210.3-393.4-206.4c-11.7,5.8-111,167.5-222,360.3c-111,192.8-223.9,370-251.2,395.3c-46.7,46.8-56.5,46.8-502.4,52.6l-455.7,5.8l-5.8,457.6l-5.8,459.6l-60.4,52.6c-31.2,29.2-198.6,132.4-370,231.7c-169.4,97.4-327.1,188.9-346.6,204.5c-35.1,27.3-27.3,44.8,179.2,405c159.7,276.5,218.1,395.3,218.1,444s-56.5,163.6-214.2,434.3c-118.8,202.5-214.2,375.8-214.2,383.6c0,9.7,171.4,114.9,379.7,233.7c280.4,161.6,387.5,233.7,409,274.6c23.4,44.8,29.2,146.1,29.2,496.6v438.2h438.2c350.5,0,451.8,5.8,494.6,29.2c40.9,21.4,114.9,128.5,274.6,408.9c144.1,249.3,227.8,377.8,245.4,371.9C4209.9,4498.1,4355.9,4416.3,4519.5,4320.9z"/><path d="M4593.5,3499.1c-730.3-155.8-1351.5-706.9-1592.9-1411.8c-151.9-447.9-136.3-981.5,42.8-1421.6c206.4-510.2,662.1-973.7,1158.7-1180.1c284.3-118.8,486.8-157.7,800.4-157.7c239.5,0,311.6,7.8,469.3,48.7c257.1,66.2,446,150,650.4,282.4c518,336.9,862.7,858.8,965.9,1452.7c37,220.1,13.6,648.5-48.7,858.8c-233.7,788.7-882.1,1388.5-1666.9,1536.5C5156.3,3547.8,4803.8,3545.9,4593.5,3499.1z M5440.6,3074.6c802.3-216.2,1287.2-888,1250.2-1727.3C6661.6,702.7,6330.6,186.7,5771.7-84c-262.9-128.5-379.7-157.8-693.3-169.4C4683.1-269,4398.8-198.9,4073.6-2.2c-445.9,268.7-734.1,778.9-759.5,1349.5c-40.9,917.2,551.1,1635.8,1464.4,1770.1C4905.1,3136.9,5308.2,3109.6,5440.6,3074.6z"/><path d="M2414.4-1558.2c-48.7-44.8-124.6-235.6-457.6-1156.7c-220.1-605.6-401.2-1125.6-401.2-1152.8c0-112.9,89.6-208.4,194.7-208.4c23.4,0,272.6,44.8,553,97.4c282.4,52.6,523.8,97.4,539.4,97.4c15.6,0,188.9-196.7,385.6-438.2c391.4-481,422.6-504.4,553-449.8c39,15.6,81.8,48.7,99.3,74c15.6,23.4,200.6,520,410.9,1100.3c294,806.2,381.7,1067.1,371.9,1108c-38.9,153.8-233.7,218.1-340.8,111c-38.9-40.9-128.5-266.8-362.2-915.3c-171.4-475.1-315.5-862.7-321.3-862.7c-5.8,0-132.4,150-282.4,333c-161.6,198.6-296,344.7-331.1,362.2c-54.5,27.2-93.5,21.4-484.9-52.6c-231.7-44.8-430.4-77.9-440.1-74c-9.7,3.9,132.4,412.9,313.5,911.4c181.1,498.5,329.1,934.7,329.1,969.8c0,85.7-27.3,132.4-97.4,169.4C2558.5-1490,2478.7-1497.8,2414.4-1558.2z"/><path d="M7341.2-1556.2c-112.9-93.5-112.9-91.5,243.4-1069.1c179.2-492.7,329.1-913.3,335-932.8c11.7-42.8,52.6-46.7-502.4,58.4c-280.4,54.6-371.9,66.2-410.9,50.6c-52.6-21.4-142.2-118.8-451.8-498.5c-95.4-114.9-177.2-206.4-181.1-200.6c-5.9,3.9-148,393.4-319.4,862.7c-262.9,720.5-319.4,862.7-370,909.4c-128.5,116.8-331,23.4-331-151.9c0-44.8,732.2-2081.7,780.9-2175.2c27.3-52.6,142.2-97.4,208.4-81.8c76,19.5,91.5,35.1,465.4,488.8c185,227.8,350.5,414.8,364.2,414.8c13.6,0,257-42.9,539.4-97.4c282.4-52.6,537.5-97.4,566.7-97.4c72.1,0,167.5,85.7,181.1,161.6c9.7,50.6-64.3,274.6-379.7,1141.2c-214.2,593.9-403.1,1106.1-418.7,1143.1C7610-1507.5,7444.5-1468.6,7341.2-1556.2z"/></g></g>
</svg>